<mxfile host="Electron" modified="2024-01-12T18:17:23.138Z" agent="Mozilla/5.0 (Windows NT 10.0; Win64; x64) AppleWebKit/537.36 (KHTML, like Gecko) draw.io/22.1.18 Chrome/120.0.6099.199 Electron/28.1.2 Safari/537.36" etag="kGJPWMUsj6D-s9YdAkxr" version="22.1.18" type="device">
  <diagram name="Strona-1" id="n2UM5P9A7lpkHv-_4m4S">
    <mxGraphModel dx="1082" dy="1129" grid="1" gridSize="10" guides="1" tooltips="1" connect="1" arrows="1" fold="1" page="1" pageScale="1" pageWidth="827" pageHeight="1169" math="0" shadow="0">
      <root>
        <mxCell id="0" />
        <mxCell id="1" parent="0" />
        <mxCell id="48JFy7xBOdHCqw45NgD0-9" value="g&lt;br&gt;0.05" style="ellipse;whiteSpace=wrap;html=1;aspect=fixed;" vertex="1" parent="1">
          <mxGeometry x="990" width="40" height="40" as="geometry" />
        </mxCell>
        <mxCell id="48JFy7xBOdHCqw45NgD0-10" value="p&lt;br&gt;0.05" style="ellipse;whiteSpace=wrap;html=1;aspect=fixed;" vertex="1" parent="1">
          <mxGeometry x="1050" width="40" height="40" as="geometry" />
        </mxCell>
        <mxCell id="48JFy7xBOdHCqw45NgD0-11" value="c&lt;br&gt;0.1" style="ellipse;whiteSpace=wrap;html=1;aspect=fixed;" vertex="1" parent="1">
          <mxGeometry x="1110" width="40" height="40" as="geometry" />
        </mxCell>
        <mxCell id="48JFy7xBOdHCqw45NgD0-12" value="h&lt;br&gt;0.2" style="ellipse;whiteSpace=wrap;html=1;aspect=fixed;" vertex="1" parent="1">
          <mxGeometry x="1170" width="40" height="40" as="geometry" />
        </mxCell>
        <mxCell id="48JFy7xBOdHCqw45NgD0-13" value="a&lt;br&gt;0.25" style="ellipse;whiteSpace=wrap;html=1;aspect=fixed;" vertex="1" parent="1">
          <mxGeometry x="1230" width="40" height="40" as="geometry" />
        </mxCell>
        <mxCell id="48JFy7xBOdHCqw45NgD0-14" value="t&lt;br&gt;0.35" style="ellipse;whiteSpace=wrap;html=1;aspect=fixed;" vertex="1" parent="1">
          <mxGeometry x="1290" width="40" height="40" as="geometry" />
        </mxCell>
        <mxCell id="48JFy7xBOdHCqw45NgD0-24" value="0.1" style="ellipse;whiteSpace=wrap;html=1;aspect=fixed;" vertex="1" parent="1">
          <mxGeometry x="1020" y="110" width="40" height="40" as="geometry" />
        </mxCell>
        <mxCell id="48JFy7xBOdHCqw45NgD0-60" value="g&lt;br&gt;0.05" style="ellipse;whiteSpace=wrap;html=1;aspect=fixed;" vertex="1" parent="1">
          <mxGeometry x="980" y="170" width="40" height="40" as="geometry" />
        </mxCell>
        <mxCell id="48JFy7xBOdHCqw45NgD0-61" value="p&lt;br&gt;0.05" style="ellipse;whiteSpace=wrap;html=1;aspect=fixed;" vertex="1" parent="1">
          <mxGeometry x="1060" y="170" width="40" height="40" as="geometry" />
        </mxCell>
        <mxCell id="48JFy7xBOdHCqw45NgD0-62" value="" style="endArrow=none;html=1;rounded=0;entryX=0;entryY=1;entryDx=0;entryDy=0;exitX=0.5;exitY=0;exitDx=0;exitDy=0;" edge="1" parent="1" source="48JFy7xBOdHCqw45NgD0-60" target="48JFy7xBOdHCqw45NgD0-24">
          <mxGeometry width="50" height="50" relative="1" as="geometry">
            <mxPoint x="1010" y="170" as="sourcePoint" />
            <mxPoint x="1060" y="120" as="targetPoint" />
          </mxGeometry>
        </mxCell>
        <mxCell id="48JFy7xBOdHCqw45NgD0-63" value="" style="endArrow=none;html=1;rounded=0;entryX=1;entryY=1;entryDx=0;entryDy=0;exitX=0.5;exitY=0;exitDx=0;exitDy=0;" edge="1" parent="1" source="48JFy7xBOdHCqw45NgD0-61" target="48JFy7xBOdHCqw45NgD0-24">
          <mxGeometry width="50" height="50" relative="1" as="geometry">
            <mxPoint x="1030" y="180" as="sourcePoint" />
            <mxPoint x="1080" y="130" as="targetPoint" />
          </mxGeometry>
        </mxCell>
        <mxCell id="48JFy7xBOdHCqw45NgD0-65" value="c&lt;br&gt;0.1" style="ellipse;whiteSpace=wrap;html=1;aspect=fixed;" vertex="1" parent="1">
          <mxGeometry x="920" y="110" width="40" height="40" as="geometry" />
        </mxCell>
        <mxCell id="48JFy7xBOdHCqw45NgD0-69" value="h&lt;br&gt;0.2" style="ellipse;whiteSpace=wrap;html=1;aspect=fixed;" vertex="1" parent="1">
          <mxGeometry x="1120" y="110" width="40" height="40" as="geometry" />
        </mxCell>
        <mxCell id="48JFy7xBOdHCqw45NgD0-70" value="a&lt;br&gt;0.25" style="ellipse;whiteSpace=wrap;html=1;aspect=fixed;" vertex="1" parent="1">
          <mxGeometry x="1180" y="110" width="40" height="40" as="geometry" />
        </mxCell>
        <mxCell id="48JFy7xBOdHCqw45NgD0-71" value="t&lt;br&gt;0.35" style="ellipse;whiteSpace=wrap;html=1;aspect=fixed;" vertex="1" parent="1">
          <mxGeometry x="1240" y="110" width="40" height="40" as="geometry" />
        </mxCell>
        <mxCell id="48JFy7xBOdHCqw45NgD0-73" value="0.2" style="ellipse;whiteSpace=wrap;html=1;aspect=fixed;" vertex="1" parent="1">
          <mxGeometry x="970" y="280" width="40" height="40" as="geometry" />
        </mxCell>
        <mxCell id="48JFy7xBOdHCqw45NgD0-88" value="" style="endArrow=classicThin;startArrow=classicThin;html=1;rounded=1;startFill=1;curved=0;strokeWidth=1;endFill=1;" edge="1" parent="1">
          <mxGeometry width="50" height="50" relative="1" as="geometry">
            <mxPoint x="1070" y="50" as="sourcePoint" />
            <mxPoint x="1010" y="50" as="targetPoint" />
            <Array as="points">
              <mxPoint x="1070" y="80" />
              <mxPoint x="1010" y="80" />
            </Array>
          </mxGeometry>
        </mxCell>
        <mxCell id="48JFy7xBOdHCqw45NgD0-92" value="merged" style="edgeLabel;html=1;align=center;verticalAlign=middle;resizable=0;points=[];" vertex="1" connectable="0" parent="48JFy7xBOdHCqw45NgD0-88">
          <mxGeometry x="-0.0008" y="-1" relative="1" as="geometry">
            <mxPoint y="-10" as="offset" />
          </mxGeometry>
        </mxCell>
        <mxCell id="48JFy7xBOdHCqw45NgD0-90" value="" style="endArrow=classicThin;html=1;rounded=0;endFill=1;" edge="1" parent="1">
          <mxGeometry width="50" height="50" relative="1" as="geometry">
            <mxPoint x="1040" y="80" as="sourcePoint" />
            <mxPoint x="1040" y="100" as="targetPoint" />
          </mxGeometry>
        </mxCell>
        <mxCell id="48JFy7xBOdHCqw45NgD0-93" value="" style="endArrow=classicThin;startArrow=classicThin;html=1;rounded=1;startFill=1;curved=0;strokeWidth=1;endFill=1;" edge="1" parent="1">
          <mxGeometry width="50" height="50" relative="1" as="geometry">
            <mxPoint x="1040" y="210" as="sourcePoint" />
            <mxPoint x="940" y="170" as="targetPoint" />
            <Array as="points">
              <mxPoint x="1040" y="240" />
              <mxPoint x="940" y="240" />
            </Array>
          </mxGeometry>
        </mxCell>
        <mxCell id="48JFy7xBOdHCqw45NgD0-94" value="merged" style="edgeLabel;html=1;align=center;verticalAlign=middle;resizable=0;points=[];" vertex="1" connectable="0" parent="48JFy7xBOdHCqw45NgD0-93">
          <mxGeometry x="-0.0008" y="-1" relative="1" as="geometry">
            <mxPoint x="20" y="-9" as="offset" />
          </mxGeometry>
        </mxCell>
        <mxCell id="48JFy7xBOdHCqw45NgD0-95" value="" style="endArrow=classicThin;html=1;rounded=0;endFill=1;" edge="1" parent="1">
          <mxGeometry width="50" height="50" relative="1" as="geometry">
            <mxPoint x="990" y="240" as="sourcePoint" />
            <mxPoint x="990" y="270" as="targetPoint" />
          </mxGeometry>
        </mxCell>
        <mxCell id="48JFy7xBOdHCqw45NgD0-96" value="c&lt;br&gt;0.1" style="ellipse;whiteSpace=wrap;html=1;aspect=fixed;" vertex="1" parent="1">
          <mxGeometry x="930" y="340" width="40" height="40" as="geometry" />
        </mxCell>
        <mxCell id="48JFy7xBOdHCqw45NgD0-97" value="" style="endArrow=none;html=1;rounded=0;exitX=0.5;exitY=0;exitDx=0;exitDy=0;entryX=0;entryY=1;entryDx=0;entryDy=0;" edge="1" parent="1" source="48JFy7xBOdHCqw45NgD0-96" target="48JFy7xBOdHCqw45NgD0-73">
          <mxGeometry width="50" height="50" relative="1" as="geometry">
            <mxPoint x="980" y="260" as="sourcePoint" />
            <mxPoint x="1030" y="210" as="targetPoint" />
          </mxGeometry>
        </mxCell>
        <mxCell id="48JFy7xBOdHCqw45NgD0-98" value="0.1" style="ellipse;whiteSpace=wrap;html=1;aspect=fixed;" vertex="1" parent="1">
          <mxGeometry x="1010" y="340" width="40" height="40" as="geometry" />
        </mxCell>
        <mxCell id="48JFy7xBOdHCqw45NgD0-99" value="g&lt;br&gt;0.05" style="ellipse;whiteSpace=wrap;html=1;aspect=fixed;" vertex="1" parent="1">
          <mxGeometry x="970" y="400" width="40" height="40" as="geometry" />
        </mxCell>
        <mxCell id="48JFy7xBOdHCqw45NgD0-100" value="p&lt;br&gt;0.05" style="ellipse;whiteSpace=wrap;html=1;aspect=fixed;" vertex="1" parent="1">
          <mxGeometry x="1050" y="400" width="40" height="40" as="geometry" />
        </mxCell>
        <mxCell id="48JFy7xBOdHCqw45NgD0-101" value="" style="endArrow=none;html=1;rounded=0;entryX=0;entryY=1;entryDx=0;entryDy=0;exitX=0.5;exitY=0;exitDx=0;exitDy=0;" edge="1" parent="1" source="48JFy7xBOdHCqw45NgD0-99" target="48JFy7xBOdHCqw45NgD0-98">
          <mxGeometry width="50" height="50" relative="1" as="geometry">
            <mxPoint x="1000" y="400" as="sourcePoint" />
            <mxPoint x="1050" y="350" as="targetPoint" />
          </mxGeometry>
        </mxCell>
        <mxCell id="48JFy7xBOdHCqw45NgD0-102" value="" style="endArrow=none;html=1;rounded=0;entryX=1;entryY=1;entryDx=0;entryDy=0;exitX=0.5;exitY=0;exitDx=0;exitDy=0;" edge="1" parent="1" source="48JFy7xBOdHCqw45NgD0-100" target="48JFy7xBOdHCqw45NgD0-98">
          <mxGeometry width="50" height="50" relative="1" as="geometry">
            <mxPoint x="1020" y="410" as="sourcePoint" />
            <mxPoint x="1070" y="360" as="targetPoint" />
          </mxGeometry>
        </mxCell>
        <mxCell id="48JFy7xBOdHCqw45NgD0-103" value="" style="endArrow=none;html=1;rounded=0;entryX=1;entryY=1;entryDx=0;entryDy=0;exitX=0.5;exitY=0;exitDx=0;exitDy=0;" edge="1" parent="1" source="48JFy7xBOdHCqw45NgD0-98" target="48JFy7xBOdHCqw45NgD0-73">
          <mxGeometry width="50" height="50" relative="1" as="geometry">
            <mxPoint x="960" y="280" as="sourcePoint" />
            <mxPoint x="1010" y="230" as="targetPoint" />
          </mxGeometry>
        </mxCell>
        <mxCell id="48JFy7xBOdHCqw45NgD0-104" value="h&lt;br&gt;0.2" style="ellipse;whiteSpace=wrap;html=1;aspect=fixed;" vertex="1" parent="1">
          <mxGeometry x="870" y="280" width="40" height="40" as="geometry" />
        </mxCell>
        <mxCell id="48JFy7xBOdHCqw45NgD0-105" value="a&lt;br&gt;0.25" style="ellipse;whiteSpace=wrap;html=1;aspect=fixed;" vertex="1" parent="1">
          <mxGeometry x="1110" y="280" width="40" height="40" as="geometry" />
        </mxCell>
        <mxCell id="48JFy7xBOdHCqw45NgD0-106" value="t&lt;br&gt;0.35" style="ellipse;whiteSpace=wrap;html=1;aspect=fixed;" vertex="1" parent="1">
          <mxGeometry x="1170" y="280" width="40" height="40" as="geometry" />
        </mxCell>
        <mxCell id="48JFy7xBOdHCqw45NgD0-107" value="" style="endArrow=classicThin;startArrow=classicThin;html=1;rounded=1;startFill=1;curved=0;strokeWidth=1;endFill=1;" edge="1" parent="1">
          <mxGeometry width="50" height="50" relative="1" as="geometry">
            <mxPoint x="990" y="470" as="sourcePoint" />
            <mxPoint x="890" y="340" as="targetPoint" />
            <Array as="points">
              <mxPoint x="990" y="500" />
              <mxPoint x="890" y="500" />
            </Array>
          </mxGeometry>
        </mxCell>
        <mxCell id="48JFy7xBOdHCqw45NgD0-108" value="merged" style="edgeLabel;html=1;align=center;verticalAlign=middle;resizable=0;points=[];" vertex="1" connectable="0" parent="48JFy7xBOdHCqw45NgD0-107">
          <mxGeometry x="-0.0008" y="-1" relative="1" as="geometry">
            <mxPoint x="49" y="5" as="offset" />
          </mxGeometry>
        </mxCell>
        <mxCell id="48JFy7xBOdHCqw45NgD0-109" value="" style="endArrow=classicThin;html=1;rounded=1;endFill=1;curved=0;" edge="1" parent="1">
          <mxGeometry width="50" height="50" relative="1" as="geometry">
            <mxPoint x="940" y="500" as="sourcePoint" />
            <mxPoint x="1100" y="540" as="targetPoint" />
            <Array as="points">
              <mxPoint x="940" y="520" />
              <mxPoint x="1100" y="520" />
            </Array>
          </mxGeometry>
        </mxCell>
        <mxCell id="48JFy7xBOdHCqw45NgD0-110" value="0.4" style="ellipse;whiteSpace=wrap;html=1;aspect=fixed;" vertex="1" parent="1">
          <mxGeometry x="1081" y="550" width="40" height="40" as="geometry" />
        </mxCell>
        <mxCell id="48JFy7xBOdHCqw45NgD0-111" value="0.2" style="ellipse;whiteSpace=wrap;html=1;aspect=fixed;" vertex="1" parent="1">
          <mxGeometry x="1120" y="610" width="40" height="40" as="geometry" />
        </mxCell>
        <mxCell id="48JFy7xBOdHCqw45NgD0-112" value="c&lt;br&gt;0.1" style="ellipse;whiteSpace=wrap;html=1;aspect=fixed;" vertex="1" parent="1">
          <mxGeometry x="1080" y="670" width="40" height="40" as="geometry" />
        </mxCell>
        <mxCell id="48JFy7xBOdHCqw45NgD0-113" value="" style="endArrow=none;html=1;rounded=0;exitX=0.5;exitY=0;exitDx=0;exitDy=0;entryX=0;entryY=1;entryDx=0;entryDy=0;" edge="1" parent="1" source="48JFy7xBOdHCqw45NgD0-112" target="48JFy7xBOdHCqw45NgD0-111">
          <mxGeometry width="50" height="50" relative="1" as="geometry">
            <mxPoint x="1130" y="590" as="sourcePoint" />
            <mxPoint x="1180" y="540" as="targetPoint" />
          </mxGeometry>
        </mxCell>
        <mxCell id="48JFy7xBOdHCqw45NgD0-114" value="0.1" style="ellipse;whiteSpace=wrap;html=1;aspect=fixed;" vertex="1" parent="1">
          <mxGeometry x="1160" y="670" width="40" height="40" as="geometry" />
        </mxCell>
        <mxCell id="48JFy7xBOdHCqw45NgD0-115" value="g&lt;br&gt;0.05" style="ellipse;whiteSpace=wrap;html=1;aspect=fixed;" vertex="1" parent="1">
          <mxGeometry x="1120" y="730" width="40" height="40" as="geometry" />
        </mxCell>
        <mxCell id="48JFy7xBOdHCqw45NgD0-116" value="p&lt;br&gt;0.05" style="ellipse;whiteSpace=wrap;html=1;aspect=fixed;" vertex="1" parent="1">
          <mxGeometry x="1200" y="730" width="40" height="40" as="geometry" />
        </mxCell>
        <mxCell id="48JFy7xBOdHCqw45NgD0-117" value="" style="endArrow=none;html=1;rounded=0;entryX=0;entryY=1;entryDx=0;entryDy=0;exitX=0.5;exitY=0;exitDx=0;exitDy=0;" edge="1" parent="1" source="48JFy7xBOdHCqw45NgD0-115" target="48JFy7xBOdHCqw45NgD0-114">
          <mxGeometry width="50" height="50" relative="1" as="geometry">
            <mxPoint x="1150" y="730" as="sourcePoint" />
            <mxPoint x="1200" y="680" as="targetPoint" />
          </mxGeometry>
        </mxCell>
        <mxCell id="48JFy7xBOdHCqw45NgD0-118" value="" style="endArrow=none;html=1;rounded=0;entryX=1;entryY=1;entryDx=0;entryDy=0;exitX=0.5;exitY=0;exitDx=0;exitDy=0;" edge="1" parent="1" source="48JFy7xBOdHCqw45NgD0-116" target="48JFy7xBOdHCqw45NgD0-114">
          <mxGeometry width="50" height="50" relative="1" as="geometry">
            <mxPoint x="1170" y="740" as="sourcePoint" />
            <mxPoint x="1220" y="690" as="targetPoint" />
          </mxGeometry>
        </mxCell>
        <mxCell id="48JFy7xBOdHCqw45NgD0-119" value="" style="endArrow=none;html=1;rounded=0;entryX=1;entryY=1;entryDx=0;entryDy=0;exitX=0.5;exitY=0;exitDx=0;exitDy=0;" edge="1" parent="1" source="48JFy7xBOdHCqw45NgD0-114" target="48JFy7xBOdHCqw45NgD0-111">
          <mxGeometry width="50" height="50" relative="1" as="geometry">
            <mxPoint x="1110" y="610" as="sourcePoint" />
            <mxPoint x="1160" y="560" as="targetPoint" />
          </mxGeometry>
        </mxCell>
        <mxCell id="48JFy7xBOdHCqw45NgD0-120" value="" style="endArrow=none;html=1;rounded=0;entryX=1;entryY=1;entryDx=0;entryDy=0;exitX=0.5;exitY=0;exitDx=0;exitDy=0;" edge="1" parent="1" source="48JFy7xBOdHCqw45NgD0-111" target="48JFy7xBOdHCqw45NgD0-110">
          <mxGeometry width="50" height="50" relative="1" as="geometry">
            <mxPoint x="1030" y="640" as="sourcePoint" />
            <mxPoint x="1080" y="590" as="targetPoint" />
          </mxGeometry>
        </mxCell>
        <mxCell id="48JFy7xBOdHCqw45NgD0-125" value="h&lt;br&gt;0.2" style="ellipse;whiteSpace=wrap;html=1;aspect=fixed;" vertex="1" parent="1">
          <mxGeometry x="1040" y="610" width="40" height="40" as="geometry" />
        </mxCell>
        <mxCell id="48JFy7xBOdHCqw45NgD0-126" value="" style="endArrow=none;html=1;rounded=0;entryX=0;entryY=1;entryDx=0;entryDy=0;exitX=0.5;exitY=0;exitDx=0;exitDy=0;" edge="1" parent="1" source="48JFy7xBOdHCqw45NgD0-125" target="48JFy7xBOdHCqw45NgD0-110">
          <mxGeometry width="50" height="50" relative="1" as="geometry">
            <mxPoint x="960" y="620" as="sourcePoint" />
            <mxPoint x="1010" y="570" as="targetPoint" />
          </mxGeometry>
        </mxCell>
        <mxCell id="48JFy7xBOdHCqw45NgD0-127" value="a&lt;br&gt;0.25" style="ellipse;whiteSpace=wrap;html=1;aspect=fixed;" vertex="1" parent="1">
          <mxGeometry x="920" y="550" width="40" height="40" as="geometry" />
        </mxCell>
        <mxCell id="48JFy7xBOdHCqw45NgD0-128" value="0.6" style="ellipse;whiteSpace=wrap;html=1;aspect=fixed;" vertex="1" parent="1">
          <mxGeometry x="1180" y="860" width="40" height="40" as="geometry" />
        </mxCell>
        <mxCell id="48JFy7xBOdHCqw45NgD0-133" value="" style="endArrow=classicThin;startArrow=classicThin;html=1;rounded=1;startFill=1;curved=0;strokeWidth=1;endFill=1;" edge="1" parent="1">
          <mxGeometry width="50" height="50" relative="1" as="geometry">
            <mxPoint x="1000" y="600" as="sourcePoint" />
            <mxPoint x="940" y="600" as="targetPoint" />
            <Array as="points">
              <mxPoint x="1000" y="800" />
              <mxPoint x="940" y="800" />
            </Array>
          </mxGeometry>
        </mxCell>
        <mxCell id="48JFy7xBOdHCqw45NgD0-134" value="merged" style="edgeLabel;html=1;align=center;verticalAlign=middle;resizable=0;points=[];" vertex="1" connectable="0" parent="48JFy7xBOdHCqw45NgD0-133">
          <mxGeometry x="-0.0008" relative="1" as="geometry">
            <mxPoint y="-10" as="offset" />
          </mxGeometry>
        </mxCell>
        <mxCell id="48JFy7xBOdHCqw45NgD0-135" value="" style="endArrow=classicThin;html=1;rounded=1;endFill=1;jumpStyle=none;curved=0;" edge="1" parent="1">
          <mxGeometry width="50" height="50" relative="1" as="geometry">
            <mxPoint x="970" y="800" as="sourcePoint" />
            <mxPoint x="1200" y="850" as="targetPoint" />
            <Array as="points">
              <mxPoint x="970" y="820" />
              <mxPoint x="1200" y="820" />
            </Array>
          </mxGeometry>
        </mxCell>
        <mxCell id="48JFy7xBOdHCqw45NgD0-167" value="t&lt;br&gt;0.35" style="ellipse;whiteSpace=wrap;html=1;aspect=fixed;" vertex="1" parent="1">
          <mxGeometry x="980" y="550" width="40" height="40" as="geometry" />
        </mxCell>
        <mxCell id="48JFy7xBOdHCqw45NgD0-168" value="a&lt;br&gt;0.25" style="ellipse;whiteSpace=wrap;html=1;aspect=fixed;" vertex="1" parent="1">
          <mxGeometry x="1140" y="920" width="40" height="40" as="geometry" />
        </mxCell>
        <mxCell id="48JFy7xBOdHCqw45NgD0-169" value="t&lt;br&gt;0.35" style="ellipse;whiteSpace=wrap;html=1;aspect=fixed;" vertex="1" parent="1">
          <mxGeometry x="1220" y="920" width="40" height="40" as="geometry" />
        </mxCell>
        <mxCell id="48JFy7xBOdHCqw45NgD0-170" value="" style="endArrow=none;html=1;rounded=0;entryX=0;entryY=1;entryDx=0;entryDy=0;exitX=0.5;exitY=0;exitDx=0;exitDy=0;" edge="1" parent="1" source="48JFy7xBOdHCqw45NgD0-168" target="48JFy7xBOdHCqw45NgD0-128">
          <mxGeometry width="50" height="50" relative="1" as="geometry">
            <mxPoint x="1130" y="940" as="sourcePoint" />
            <mxPoint x="1180" y="890" as="targetPoint" />
          </mxGeometry>
        </mxCell>
        <mxCell id="48JFy7xBOdHCqw45NgD0-171" value="" style="endArrow=none;html=1;rounded=0;entryX=1;entryY=1;entryDx=0;entryDy=0;exitX=0.5;exitY=0;exitDx=0;exitDy=0;" edge="1" parent="1" source="48JFy7xBOdHCqw45NgD0-169" target="48JFy7xBOdHCqw45NgD0-128">
          <mxGeometry width="50" height="50" relative="1" as="geometry">
            <mxPoint x="1220" y="940" as="sourcePoint" />
            <mxPoint x="1270" y="890" as="targetPoint" />
          </mxGeometry>
        </mxCell>
        <mxCell id="48JFy7xBOdHCqw45NgD0-186" value="0.4" style="ellipse;whiteSpace=wrap;html=1;aspect=fixed;" vertex="1" parent="1">
          <mxGeometry x="961" y="860" width="40" height="40" as="geometry" />
        </mxCell>
        <mxCell id="48JFy7xBOdHCqw45NgD0-187" value="0.2" style="ellipse;whiteSpace=wrap;html=1;aspect=fixed;" vertex="1" parent="1">
          <mxGeometry x="1000" y="920" width="40" height="40" as="geometry" />
        </mxCell>
        <mxCell id="48JFy7xBOdHCqw45NgD0-188" value="c&lt;br&gt;0.1" style="ellipse;whiteSpace=wrap;html=1;aspect=fixed;" vertex="1" parent="1">
          <mxGeometry x="960" y="980" width="40" height="40" as="geometry" />
        </mxCell>
        <mxCell id="48JFy7xBOdHCqw45NgD0-189" value="" style="endArrow=none;html=1;rounded=0;exitX=0.5;exitY=0;exitDx=0;exitDy=0;entryX=0;entryY=1;entryDx=0;entryDy=0;" edge="1" parent="1" source="48JFy7xBOdHCqw45NgD0-188" target="48JFy7xBOdHCqw45NgD0-187">
          <mxGeometry width="50" height="50" relative="1" as="geometry">
            <mxPoint x="1010" y="900" as="sourcePoint" />
            <mxPoint x="1060" y="850" as="targetPoint" />
          </mxGeometry>
        </mxCell>
        <mxCell id="48JFy7xBOdHCqw45NgD0-190" value="0.1" style="ellipse;whiteSpace=wrap;html=1;aspect=fixed;" vertex="1" parent="1">
          <mxGeometry x="1040" y="980" width="40" height="40" as="geometry" />
        </mxCell>
        <mxCell id="48JFy7xBOdHCqw45NgD0-191" value="g&lt;br&gt;0.05" style="ellipse;whiteSpace=wrap;html=1;aspect=fixed;" vertex="1" parent="1">
          <mxGeometry x="1000" y="1040" width="40" height="40" as="geometry" />
        </mxCell>
        <mxCell id="48JFy7xBOdHCqw45NgD0-192" value="p&lt;br&gt;0.05" style="ellipse;whiteSpace=wrap;html=1;aspect=fixed;" vertex="1" parent="1">
          <mxGeometry x="1080" y="1040" width="40" height="40" as="geometry" />
        </mxCell>
        <mxCell id="48JFy7xBOdHCqw45NgD0-193" value="" style="endArrow=none;html=1;rounded=0;entryX=0;entryY=1;entryDx=0;entryDy=0;exitX=0.5;exitY=0;exitDx=0;exitDy=0;" edge="1" parent="1" source="48JFy7xBOdHCqw45NgD0-191" target="48JFy7xBOdHCqw45NgD0-190">
          <mxGeometry width="50" height="50" relative="1" as="geometry">
            <mxPoint x="1030" y="1040" as="sourcePoint" />
            <mxPoint x="1080" y="990" as="targetPoint" />
          </mxGeometry>
        </mxCell>
        <mxCell id="48JFy7xBOdHCqw45NgD0-194" value="" style="endArrow=none;html=1;rounded=0;entryX=1;entryY=1;entryDx=0;entryDy=0;exitX=0.5;exitY=0;exitDx=0;exitDy=0;" edge="1" parent="1" source="48JFy7xBOdHCqw45NgD0-192" target="48JFy7xBOdHCqw45NgD0-190">
          <mxGeometry width="50" height="50" relative="1" as="geometry">
            <mxPoint x="1050" y="1050" as="sourcePoint" />
            <mxPoint x="1100" y="1000" as="targetPoint" />
          </mxGeometry>
        </mxCell>
        <mxCell id="48JFy7xBOdHCqw45NgD0-195" value="" style="endArrow=none;html=1;rounded=0;entryX=1;entryY=1;entryDx=0;entryDy=0;exitX=0.5;exitY=0;exitDx=0;exitDy=0;" edge="1" parent="1" source="48JFy7xBOdHCqw45NgD0-190" target="48JFy7xBOdHCqw45NgD0-187">
          <mxGeometry width="50" height="50" relative="1" as="geometry">
            <mxPoint x="990" y="920" as="sourcePoint" />
            <mxPoint x="1040" y="870" as="targetPoint" />
          </mxGeometry>
        </mxCell>
        <mxCell id="48JFy7xBOdHCqw45NgD0-196" value="" style="endArrow=none;html=1;rounded=0;entryX=1;entryY=1;entryDx=0;entryDy=0;exitX=0.5;exitY=0;exitDx=0;exitDy=0;" edge="1" parent="1" source="48JFy7xBOdHCqw45NgD0-187" target="48JFy7xBOdHCqw45NgD0-186">
          <mxGeometry width="50" height="50" relative="1" as="geometry">
            <mxPoint x="910" y="950" as="sourcePoint" />
            <mxPoint x="960" y="900" as="targetPoint" />
          </mxGeometry>
        </mxCell>
        <mxCell id="48JFy7xBOdHCqw45NgD0-197" value="h&lt;br&gt;0.2" style="ellipse;whiteSpace=wrap;html=1;aspect=fixed;" vertex="1" parent="1">
          <mxGeometry x="920" y="920" width="40" height="40" as="geometry" />
        </mxCell>
        <mxCell id="48JFy7xBOdHCqw45NgD0-198" value="" style="endArrow=none;html=1;rounded=0;entryX=0;entryY=1;entryDx=0;entryDy=0;exitX=0.5;exitY=0;exitDx=0;exitDy=0;" edge="1" parent="1" source="48JFy7xBOdHCqw45NgD0-197" target="48JFy7xBOdHCqw45NgD0-186">
          <mxGeometry width="50" height="50" relative="1" as="geometry">
            <mxPoint x="840" y="930" as="sourcePoint" />
            <mxPoint x="890" y="880" as="targetPoint" />
          </mxGeometry>
        </mxCell>
        <mxCell id="48JFy7xBOdHCqw45NgD0-199" value="" style="endArrow=classicThin;startArrow=classicThin;html=1;rounded=1;startFill=1;curved=0;strokeWidth=1;endFill=1;" edge="1" parent="1">
          <mxGeometry width="50" height="50" relative="1" as="geometry">
            <mxPoint x="1200" y="960" as="sourcePoint" />
            <mxPoint x="980" y="1080" as="targetPoint" />
            <Array as="points">
              <mxPoint x="1200" y="1120" />
              <mxPoint x="980" y="1120" />
            </Array>
          </mxGeometry>
        </mxCell>
        <mxCell id="48JFy7xBOdHCqw45NgD0-200" value="merged" style="edgeLabel;html=1;align=center;verticalAlign=middle;resizable=0;points=[];" vertex="1" connectable="0" parent="48JFy7xBOdHCqw45NgD0-199">
          <mxGeometry x="-0.0008" y="-1" relative="1" as="geometry">
            <mxPoint x="-60" y="-9" as="offset" />
          </mxGeometry>
        </mxCell>
        <mxCell id="48JFy7xBOdHCqw45NgD0-201" value="" style="endArrow=classicThin;html=1;rounded=0;endFill=1;" edge="1" parent="1">
          <mxGeometry width="50" height="50" relative="1" as="geometry">
            <mxPoint x="1090" y="1120" as="sourcePoint" />
            <mxPoint x="1090" y="1150" as="targetPoint" />
          </mxGeometry>
        </mxCell>
        <mxCell id="48JFy7xBOdHCqw45NgD0-202" value="1" style="ellipse;whiteSpace=wrap;html=1;aspect=fixed;" vertex="1" parent="1">
          <mxGeometry x="1070" y="1160" width="40" height="40" as="geometry" />
        </mxCell>
        <mxCell id="48JFy7xBOdHCqw45NgD0-204" value="0.4" style="ellipse;whiteSpace=wrap;html=1;aspect=fixed;" vertex="1" parent="1">
          <mxGeometry x="991" y="1250" width="40" height="40" as="geometry" />
        </mxCell>
        <mxCell id="48JFy7xBOdHCqw45NgD0-205" value="0.2" style="ellipse;whiteSpace=wrap;html=1;aspect=fixed;" vertex="1" parent="1">
          <mxGeometry x="1030" y="1310" width="40" height="40" as="geometry" />
        </mxCell>
        <mxCell id="48JFy7xBOdHCqw45NgD0-206" value="c&lt;br&gt;0.1" style="ellipse;whiteSpace=wrap;html=1;aspect=fixed;" vertex="1" parent="1">
          <mxGeometry x="990" y="1370" width="40" height="40" as="geometry" />
        </mxCell>
        <mxCell id="48JFy7xBOdHCqw45NgD0-207" value="" style="endArrow=none;html=1;rounded=0;exitX=0.5;exitY=0;exitDx=0;exitDy=0;entryX=0;entryY=1;entryDx=0;entryDy=0;" edge="1" parent="1" source="48JFy7xBOdHCqw45NgD0-206" target="48JFy7xBOdHCqw45NgD0-205">
          <mxGeometry width="50" height="50" relative="1" as="geometry">
            <mxPoint x="1040" y="1290" as="sourcePoint" />
            <mxPoint x="1090" y="1240" as="targetPoint" />
          </mxGeometry>
        </mxCell>
        <mxCell id="48JFy7xBOdHCqw45NgD0-231" value="0" style="edgeLabel;html=1;align=center;verticalAlign=middle;resizable=0;points=[];" vertex="1" connectable="0" parent="48JFy7xBOdHCqw45NgD0-207">
          <mxGeometry x="0.1971" y="3" relative="1" as="geometry">
            <mxPoint as="offset" />
          </mxGeometry>
        </mxCell>
        <mxCell id="48JFy7xBOdHCqw45NgD0-208" value="0.1" style="ellipse;whiteSpace=wrap;html=1;aspect=fixed;" vertex="1" parent="1">
          <mxGeometry x="1070" y="1370" width="40" height="40" as="geometry" />
        </mxCell>
        <mxCell id="48JFy7xBOdHCqw45NgD0-209" value="g&lt;br&gt;0.05" style="ellipse;whiteSpace=wrap;html=1;aspect=fixed;" vertex="1" parent="1">
          <mxGeometry x="1030" y="1430" width="40" height="40" as="geometry" />
        </mxCell>
        <mxCell id="48JFy7xBOdHCqw45NgD0-210" value="p&lt;br&gt;0.05" style="ellipse;whiteSpace=wrap;html=1;aspect=fixed;" vertex="1" parent="1">
          <mxGeometry x="1110" y="1430" width="40" height="40" as="geometry" />
        </mxCell>
        <mxCell id="48JFy7xBOdHCqw45NgD0-211" value="" style="endArrow=none;html=1;rounded=0;entryX=0;entryY=1;entryDx=0;entryDy=0;exitX=0.5;exitY=0;exitDx=0;exitDy=0;" edge="1" parent="1" source="48JFy7xBOdHCqw45NgD0-209" target="48JFy7xBOdHCqw45NgD0-208">
          <mxGeometry width="50" height="50" relative="1" as="geometry">
            <mxPoint x="1060" y="1430" as="sourcePoint" />
            <mxPoint x="1110" y="1380" as="targetPoint" />
          </mxGeometry>
        </mxCell>
        <mxCell id="48JFy7xBOdHCqw45NgD0-233" value="0" style="edgeLabel;html=1;align=center;verticalAlign=middle;resizable=0;points=[];" vertex="1" connectable="0" parent="48JFy7xBOdHCqw45NgD0-211">
          <mxGeometry x="-0.0188" y="1" relative="1" as="geometry">
            <mxPoint as="offset" />
          </mxGeometry>
        </mxCell>
        <mxCell id="48JFy7xBOdHCqw45NgD0-212" value="1" style="endArrow=none;html=1;rounded=0;entryX=1;entryY=1;entryDx=0;entryDy=0;exitX=0.5;exitY=0;exitDx=0;exitDy=0;" edge="1" parent="1" source="48JFy7xBOdHCqw45NgD0-210" target="48JFy7xBOdHCqw45NgD0-208">
          <mxGeometry width="50" height="50" relative="1" as="geometry">
            <mxPoint x="1080" y="1440" as="sourcePoint" />
            <mxPoint x="1130" y="1390" as="targetPoint" />
          </mxGeometry>
        </mxCell>
        <mxCell id="48JFy7xBOdHCqw45NgD0-213" value="" style="endArrow=none;html=1;rounded=0;entryX=1;entryY=1;entryDx=0;entryDy=0;exitX=0.5;exitY=0;exitDx=0;exitDy=0;" edge="1" parent="1" source="48JFy7xBOdHCqw45NgD0-208" target="48JFy7xBOdHCqw45NgD0-205">
          <mxGeometry width="50" height="50" relative="1" as="geometry">
            <mxPoint x="1020" y="1310" as="sourcePoint" />
            <mxPoint x="1070" y="1260" as="targetPoint" />
          </mxGeometry>
        </mxCell>
        <mxCell id="48JFy7xBOdHCqw45NgD0-232" value="1" style="edgeLabel;html=1;align=center;verticalAlign=middle;resizable=0;points=[];" vertex="1" connectable="0" parent="48JFy7xBOdHCqw45NgD0-213">
          <mxGeometry x="0.0855" y="-1" relative="1" as="geometry">
            <mxPoint as="offset" />
          </mxGeometry>
        </mxCell>
        <mxCell id="48JFy7xBOdHCqw45NgD0-214" value="" style="endArrow=none;html=1;rounded=0;entryX=1;entryY=1;entryDx=0;entryDy=0;exitX=0.5;exitY=0;exitDx=0;exitDy=0;" edge="1" parent="1" source="48JFy7xBOdHCqw45NgD0-205" target="48JFy7xBOdHCqw45NgD0-204">
          <mxGeometry width="50" height="50" relative="1" as="geometry">
            <mxPoint x="940" y="1340" as="sourcePoint" />
            <mxPoint x="990" y="1290" as="targetPoint" />
          </mxGeometry>
        </mxCell>
        <mxCell id="48JFy7xBOdHCqw45NgD0-229" value="1" style="edgeLabel;html=1;align=center;verticalAlign=middle;resizable=0;points=[];" vertex="1" connectable="0" parent="48JFy7xBOdHCqw45NgD0-214">
          <mxGeometry x="-0.3132" y="-2" relative="1" as="geometry">
            <mxPoint as="offset" />
          </mxGeometry>
        </mxCell>
        <mxCell id="48JFy7xBOdHCqw45NgD0-215" value="h&lt;br&gt;0.2" style="ellipse;whiteSpace=wrap;html=1;aspect=fixed;" vertex="1" parent="1">
          <mxGeometry x="950" y="1310" width="40" height="40" as="geometry" />
        </mxCell>
        <mxCell id="48JFy7xBOdHCqw45NgD0-216" value="" style="endArrow=none;html=1;rounded=0;entryX=0;entryY=1;entryDx=0;entryDy=0;exitX=0.5;exitY=0;exitDx=0;exitDy=0;" edge="1" parent="1" source="48JFy7xBOdHCqw45NgD0-215" target="48JFy7xBOdHCqw45NgD0-204">
          <mxGeometry width="50" height="50" relative="1" as="geometry">
            <mxPoint x="870" y="1320" as="sourcePoint" />
            <mxPoint x="920" y="1270" as="targetPoint" />
          </mxGeometry>
        </mxCell>
        <mxCell id="48JFy7xBOdHCqw45NgD0-230" value="0" style="edgeLabel;html=1;align=center;verticalAlign=middle;resizable=0;points=[];" vertex="1" connectable="0" parent="48JFy7xBOdHCqw45NgD0-216">
          <mxGeometry x="0.1053" y="-1" relative="1" as="geometry">
            <mxPoint as="offset" />
          </mxGeometry>
        </mxCell>
        <mxCell id="48JFy7xBOdHCqw45NgD0-217" value="0.6" style="ellipse;whiteSpace=wrap;html=1;aspect=fixed;" vertex="1" parent="1">
          <mxGeometry x="1150" y="1250" width="40" height="40" as="geometry" />
        </mxCell>
        <mxCell id="48JFy7xBOdHCqw45NgD0-218" value="a&lt;br&gt;0.25" style="ellipse;whiteSpace=wrap;html=1;aspect=fixed;" vertex="1" parent="1">
          <mxGeometry x="1110" y="1310" width="40" height="40" as="geometry" />
        </mxCell>
        <mxCell id="48JFy7xBOdHCqw45NgD0-219" value="t&lt;br&gt;0.35" style="ellipse;whiteSpace=wrap;html=1;aspect=fixed;" vertex="1" parent="1">
          <mxGeometry x="1190" y="1310" width="40" height="40" as="geometry" />
        </mxCell>
        <mxCell id="48JFy7xBOdHCqw45NgD0-220" value="" style="endArrow=none;html=1;rounded=0;entryX=0;entryY=1;entryDx=0;entryDy=0;exitX=0.5;exitY=0;exitDx=0;exitDy=0;" edge="1" source="48JFy7xBOdHCqw45NgD0-218" target="48JFy7xBOdHCqw45NgD0-217" parent="1">
          <mxGeometry width="50" height="50" relative="1" as="geometry">
            <mxPoint x="1100" y="1330" as="sourcePoint" />
            <mxPoint x="1150" y="1280" as="targetPoint" />
          </mxGeometry>
        </mxCell>
        <mxCell id="48JFy7xBOdHCqw45NgD0-227" value="0" style="edgeLabel;html=1;align=center;verticalAlign=middle;resizable=0;points=[];" vertex="1" connectable="0" parent="48JFy7xBOdHCqw45NgD0-220">
          <mxGeometry x="0.1431" y="4" relative="1" as="geometry">
            <mxPoint as="offset" />
          </mxGeometry>
        </mxCell>
        <mxCell id="48JFy7xBOdHCqw45NgD0-221" value="" style="endArrow=none;html=1;rounded=0;entryX=1;entryY=1;entryDx=0;entryDy=0;exitX=0.5;exitY=0;exitDx=0;exitDy=0;" edge="1" source="48JFy7xBOdHCqw45NgD0-219" target="48JFy7xBOdHCqw45NgD0-217" parent="1">
          <mxGeometry width="50" height="50" relative="1" as="geometry">
            <mxPoint x="1180" y="1330" as="sourcePoint" />
            <mxPoint x="1230" y="1280" as="targetPoint" />
          </mxGeometry>
        </mxCell>
        <mxCell id="48JFy7xBOdHCqw45NgD0-228" value="1" style="edgeLabel;html=1;align=center;verticalAlign=middle;resizable=0;points=[];" vertex="1" connectable="0" parent="48JFy7xBOdHCqw45NgD0-221">
          <mxGeometry x="-0.2023" y="-3" relative="1" as="geometry">
            <mxPoint as="offset" />
          </mxGeometry>
        </mxCell>
        <mxCell id="48JFy7xBOdHCqw45NgD0-222" value="" style="endArrow=none;html=1;rounded=0;entryX=1;entryY=1;entryDx=0;entryDy=0;exitX=0.5;exitY=0;exitDx=0;exitDy=0;" edge="1" parent="1" source="48JFy7xBOdHCqw45NgD0-217" target="48JFy7xBOdHCqw45NgD0-202">
          <mxGeometry width="50" height="50" relative="1" as="geometry">
            <mxPoint x="1110" y="1250" as="sourcePoint" />
            <mxPoint x="1160" y="1200" as="targetPoint" />
          </mxGeometry>
        </mxCell>
        <mxCell id="48JFy7xBOdHCqw45NgD0-226" value="1" style="edgeLabel;html=1;align=center;verticalAlign=middle;resizable=0;points=[];" vertex="1" connectable="0" parent="48JFy7xBOdHCqw45NgD0-222">
          <mxGeometry x="-0.1474" y="-3" relative="1" as="geometry">
            <mxPoint as="offset" />
          </mxGeometry>
        </mxCell>
        <mxCell id="48JFy7xBOdHCqw45NgD0-224" value="" style="endArrow=none;html=1;rounded=0;entryX=0;entryY=1;entryDx=0;entryDy=0;exitX=0.5;exitY=0;exitDx=0;exitDy=0;" edge="1" parent="1" source="48JFy7xBOdHCqw45NgD0-204" target="48JFy7xBOdHCqw45NgD0-202">
          <mxGeometry width="50" height="50" relative="1" as="geometry">
            <mxPoint x="1041" y="1270" as="sourcePoint" />
            <mxPoint x="1091" y="1220" as="targetPoint" />
          </mxGeometry>
        </mxCell>
        <mxCell id="48JFy7xBOdHCqw45NgD0-225" value="0" style="edgeLabel;html=1;align=center;verticalAlign=middle;resizable=0;points=[];" vertex="1" connectable="0" parent="48JFy7xBOdHCqw45NgD0-224">
          <mxGeometry x="0.1203" relative="1" as="geometry">
            <mxPoint as="offset" />
          </mxGeometry>
        </mxCell>
      </root>
    </mxGraphModel>
  </diagram>
</mxfile>
